solid OpenSCAD_Model
  facet normal 0 -1 0
    outer loop
      vertex -0.188372 -2.99408 0
      vertex 50.1884 -2.99408 0
      vertex 50.1884 -2.99408 20
    endloop
  endfacet
  facet normal 0 -1 0
    outer loop
      vertex -0.188372 -2.99408 20
      vertex -0.188372 -2.99408 0
      vertex 50.1884 -2.99408 20
    endloop
  endfacet
  facet normal -0.125332 -0.992115 0
    outer loop
      vertex -0.562144 -2.94686 0
      vertex -0.188372 -2.99408 0
      vertex -0.188372 -2.99408 20
    endloop
  endfacet
  facet normal -0.125332 -0.992115 0
    outer loop
      vertex -0.562144 -2.94686 20
      vertex -0.562144 -2.94686 0
      vertex -0.188372 -2.99408 20
    endloop
  endfacet
  facet normal 0 0 1
    outer loop
      vertex -3 0 20
      vertex -2.97634 -0.376 20
      vertex -2.90575 -0.74607 20
    endloop
  endfacet
  facet normal 0 0 1
    outer loop
      vertex -2.62892 -1.44526 20
      vertex -3 0 20
      vertex -2.78933 -1.10437 20
    endloop
  endfacet
  facet normal 0 0 1
    outer loop
      vertex -2.78933 -1.10437 20
      vertex -3 0 20
      vertex -2.90575 -0.74607 20
    endloop
  endfacet
  facet normal 0 0 1
    outer loop
      vertex -2.42705 -1.76336 20
      vertex -3 0 20
      vertex -2.62892 -1.44526 20
    endloop
  endfacet
  facet normal 0 0 1
    outer loop
      vertex -2.18691 -2.05364 20
      vertex -3 0 20
      vertex -2.42705 -1.76336 20
    endloop
  endfacet
  facet normal 0 0 1
    outer loop
      vertex -1.91227 -2.31154 20
      vertex -3 0 20
      vertex -2.18691 -2.05364 20
    endloop
  endfacet
  facet normal 0 0 1
    outer loop
      vertex -1.60748 -2.53298 20
      vertex -3 0 20
      vertex -1.91227 -2.31154 20
    endloop
  endfacet
  facet normal 0 0 1
    outer loop
      vertex -1.27734 -2.71448 20
      vertex -3 0 20
      vertex -1.60748 -2.53298 20
    endloop
  endfacet
  facet normal 0 0 1
    outer loop
      vertex -0.927051 -2.85317 20
      vertex -3 0 20
      vertex -1.27734 -2.71448 20
    endloop
  endfacet
  facet normal 0 0 1
    outer loop
      vertex -0.562144 -2.94686 20
      vertex -3 0 20
      vertex -0.927051 -2.85317 20
    endloop
  endfacet
  facet normal 0 0 1
    outer loop
      vertex -0.188372 -2.99408 20
      vertex -3 0 20
      vertex -0.562144 -2.94686 20
    endloop
  endfacet
  facet normal 0 0 1
    outer loop
      vertex 50.1884 -2.99408 20
      vertex -3 0 20
      vertex -0.188372 -2.99408 20
    endloop
  endfacet
  facet normal 0 0 1
    outer loop
      vertex 50.5621 -2.94686 20
      vertex -3 0 20
      vertex 50.1884 -2.99408 20
    endloop
  endfacet
  facet normal 0 0 1
    outer loop
      vertex 50.9271 -2.85317 20
      vertex -3 0 20
      vertex 50.5621 -2.94686 20
    endloop
  endfacet
  facet normal 0 0 1
    outer loop
      vertex 51.2773 -2.71448 20
      vertex -3 0 20
      vertex 50.9271 -2.85317 20
    endloop
  endfacet
  facet normal 0 0 1
    outer loop
      vertex 51.6075 -2.53298 20
      vertex -3 0 20
      vertex 51.2773 -2.71448 20
    endloop
  endfacet
  facet normal 0 0 1
    outer loop
      vertex 51.9123 -2.31154 20
      vertex -3 0 20
      vertex 51.6075 -2.53298 20
    endloop
  endfacet
  facet normal 0 0 1
    outer loop
      vertex 52.1869 -2.05364 20
      vertex -3 0 20
      vertex 51.9123 -2.31154 20
    endloop
  endfacet
  facet normal 0 0 1
    outer loop
      vertex 52.4271 -1.76336 20
      vertex -3 0 20
      vertex 52.1869 -2.05364 20
    endloop
  endfacet
  facet normal 0 0 1
    outer loop
      vertex 52.6289 -1.44526 20
      vertex -3 0 20
      vertex 52.4271 -1.76336 20
    endloop
  endfacet
  facet normal 0 0 1
    outer loop
      vertex 52.7893 -1.10437 20
      vertex -3 0 20
      vertex 52.6289 -1.44526 20
    endloop
  endfacet
  facet normal 0 0 1
    outer loop
      vertex 52.9057 -0.74607 20
      vertex -3 0 20
      vertex 52.7893 -1.10437 20
    endloop
  endfacet
  facet normal 0 0 1
    outer loop
      vertex 52.9763 -0.376 20
      vertex -3 0 20
      vertex 52.9057 -0.74607 20
    endloop
  endfacet
  facet normal 0 0 1
    outer loop
      vertex 53 0 20
      vertex -3 0 20
      vertex 52.9763 -0.376 20
    endloop
  endfacet
  facet normal 0 0 1
    outer loop
      vertex 53 30 20
      vertex -3 0 20
      vertex 53 0 20
    endloop
  endfacet
  facet normal 0 0 1
    outer loop
      vertex 52.9763 30.376 20
      vertex -3 0 20
      vertex 53 30 20
    endloop
  endfacet
  facet normal 0 0 1
    outer loop
      vertex 52.9057 30.7461 20
      vertex -3 0 20
      vertex 52.9763 30.376 20
    endloop
  endfacet
  facet normal 0 0 1
    outer loop
      vertex 52.7893 31.1044 20
      vertex -3 0 20
      vertex 52.9057 30.7461 20
    endloop
  endfacet
  facet normal 0 0 1
    outer loop
      vertex 52.6289 31.4453 20
      vertex -3 0 20
      vertex 52.7893 31.1044 20
    endloop
  endfacet
  facet normal 0 0 1
    outer loop
      vertex 52.4271 31.7634 20
      vertex -3 0 20
      vertex 52.6289 31.4453 20
    endloop
  endfacet
  facet normal 0 0 1
    outer loop
      vertex 52.1869 32.0536 20
      vertex -3 0 20
      vertex 52.4271 31.7634 20
    endloop
  endfacet
  facet normal 0 0 1
    outer loop
      vertex 51.9123 32.3115 20
      vertex -3 0 20
      vertex 52.1869 32.0536 20
    endloop
  endfacet
  facet normal 0 0 1
    outer loop
      vertex 51.6075 32.533 20
      vertex -3 0 20
      vertex 51.9123 32.3115 20
    endloop
  endfacet
  facet normal 0 0 1
    outer loop
      vertex 51.2773 32.7145 20
      vertex -3 0 20
      vertex 51.6075 32.533 20
    endloop
  endfacet
  facet normal 0 0 1
    outer loop
      vertex 50.9271 32.8532 20
      vertex -3 0 20
      vertex 51.2773 32.7145 20
    endloop
  endfacet
  facet normal 0 0 1
    outer loop
      vertex 50.5621 32.9469 20
      vertex -3 0 20
      vertex 50.9271 32.8532 20
    endloop
  endfacet
  facet normal 0 0 1
    outer loop
      vertex 50.1884 32.9941 20
      vertex -3 0 20
      vertex 50.5621 32.9469 20
    endloop
  endfacet
  facet normal 0 0 1
    outer loop
      vertex -0.188372 32.9941 20
      vertex -3 0 20
      vertex 50.1884 32.9941 20
    endloop
  endfacet
  facet normal 0 0 1
    outer loop
      vertex -0.562144 32.9469 20
      vertex -3 0 20
      vertex -0.188372 32.9941 20
    endloop
  endfacet
  facet normal 0 0 1
    outer loop
      vertex -0.927051 32.8532 20
      vertex -3 0 20
      vertex -0.562144 32.9469 20
    endloop
  endfacet
  facet normal 0 0 1
    outer loop
      vertex -1.27734 32.7145 20
      vertex -3 0 20
      vertex -0.927051 32.8532 20
    endloop
  endfacet
  facet normal 0 0 1
    outer loop
      vertex -1.60748 32.533 20
      vertex -3 0 20
      vertex -1.27734 32.7145 20
    endloop
  endfacet
  facet normal 0 0 1
    outer loop
      vertex -1.91227 32.3115 20
      vertex -3 0 20
      vertex -1.60748 32.533 20
    endloop
  endfacet
  facet normal 0 0 1
    outer loop
      vertex -2.18691 32.0536 20
      vertex -3 0 20
      vertex -1.91227 32.3115 20
    endloop
  endfacet
  facet normal 0 0 1
    outer loop
      vertex -2.42705 31.7634 20
      vertex -3 0 20
      vertex -2.18691 32.0536 20
    endloop
  endfacet
  facet normal 0 0 1
    outer loop
      vertex -2.62892 31.4453 20
      vertex -3 0 20
      vertex -2.42705 31.7634 20
    endloop
  endfacet
  facet normal 0 0 1
    outer loop
      vertex -2.78933 31.1044 20
      vertex -3 0 20
      vertex -2.62892 31.4453 20
    endloop
  endfacet
  facet normal 0 0 1
    outer loop
      vertex -2.90575 30.7461 20
      vertex -3 0 20
      vertex -2.78933 31.1044 20
    endloop
  endfacet
  facet normal 0 0 1
    outer loop
      vertex -2.97634 30.376 20
      vertex -3 0 20
      vertex -2.90575 30.7461 20
    endloop
  endfacet
  facet normal 0 0 1
    outer loop
      vertex -3 30 20
      vertex -3 0 20
      vertex -2.97634 30.376 20
    endloop
  endfacet
  facet normal 0 0 -1
    outer loop
      vertex -3 30 0
      vertex -2.97634 30.376 0
      vertex -3 0 0
    endloop
  endfacet
  facet normal 0 0 -1
    outer loop
      vertex -3 0 0
      vertex -2.97634 30.376 0
      vertex -2.90575 30.7461 0
    endloop
  endfacet
  facet normal 0 0 -1
    outer loop
      vertex -3 0 0
      vertex -2.90575 30.7461 0
      vertex -2.78933 31.1044 0
    endloop
  endfacet
  facet normal 0 0 -1
    outer loop
      vertex -3 0 0
      vertex -2.78933 31.1044 0
      vertex -2.62892 31.4453 0
    endloop
  endfacet
  facet normal 0 0 -1
    outer loop
      vertex -3 0 0
      vertex -2.62892 31.4453 0
      vertex -2.42705 31.7634 0
    endloop
  endfacet
  facet normal 0 0 -1
    outer loop
      vertex -3 0 0
      vertex -2.42705 31.7634 0
      vertex -2.18691 32.0536 0
    endloop
  endfacet
  facet normal 0 0 -1
    outer loop
      vertex -3 0 0
      vertex -2.18691 32.0536 0
      vertex -1.91227 32.3115 0
    endloop
  endfacet
  facet normal 0 0 -1
    outer loop
      vertex -3 0 0
      vertex -1.91227 32.3115 0
      vertex -1.60748 32.533 0
    endloop
  endfacet
  facet normal 0 0 -1
    outer loop
      vertex -3 0 0
      vertex -1.60748 32.533 0
      vertex -1.27734 32.7145 0
    endloop
  endfacet
  facet normal 0 0 -1
    outer loop
      vertex -3 0 0
      vertex -1.27734 32.7145 0
      vertex -0.927051 32.8532 0
    endloop
  endfacet
  facet normal 0 0 -1
    outer loop
      vertex -3 0 0
      vertex -0.927051 32.8532 0
      vertex -0.562144 32.9469 0
    endloop
  endfacet
  facet normal 0 0 -1
    outer loop
      vertex -3 0 0
      vertex -0.562144 32.9469 0
      vertex -0.188372 32.9941 0
    endloop
  endfacet
  facet normal 0 0 -1
    outer loop
      vertex -3 0 0
      vertex -0.188372 32.9941 0
      vertex 50.1884 32.9941 0
    endloop
  endfacet
  facet normal 0 0 -1
    outer loop
      vertex -3 0 0
      vertex 50.1884 32.9941 0
      vertex 50.5621 32.9469 0
    endloop
  endfacet
  facet normal 0 0 -1
    outer loop
      vertex -3 0 0
      vertex 50.5621 32.9469 0
      vertex 50.9271 32.8532 0
    endloop
  endfacet
  facet normal 0 0 -1
    outer loop
      vertex -3 0 0
      vertex 50.9271 32.8532 0
      vertex 51.2773 32.7145 0
    endloop
  endfacet
  facet normal 0 0 -1
    outer loop
      vertex -3 0 0
      vertex 51.2773 32.7145 0
      vertex 51.6075 32.533 0
    endloop
  endfacet
  facet normal 0 0 -1
    outer loop
      vertex -3 0 0
      vertex 51.6075 32.533 0
      vertex 51.9123 32.3115 0
    endloop
  endfacet
  facet normal 0 0 -1
    outer loop
      vertex -3 0 0
      vertex 51.9123 32.3115 0
      vertex 52.1869 32.0536 0
    endloop
  endfacet
  facet normal 0 0 -1
    outer loop
      vertex -3 0 0
      vertex 52.1869 32.0536 0
      vertex 52.4271 31.7634 0
    endloop
  endfacet
  facet normal 0 0 -1
    outer loop
      vertex -3 0 0
      vertex 52.4271 31.7634 0
      vertex 52.6289 31.4453 0
    endloop
  endfacet
  facet normal 0 0 -1
    outer loop
      vertex -3 0 0
      vertex 52.6289 31.4453 0
      vertex 52.7893 31.1044 0
    endloop
  endfacet
  facet normal 0 0 -1
    outer loop
      vertex -3 0 0
      vertex 52.7893 31.1044 0
      vertex 52.9057 30.7461 0
    endloop
  endfacet
  facet normal 0 0 -1
    outer loop
      vertex -3 0 0
      vertex 52.9057 30.7461 0
      vertex 52.9763 30.376 0
    endloop
  endfacet
  facet normal 0 0 -1
    outer loop
      vertex -3 0 0
      vertex 52.9763 30.376 0
      vertex 53 30 0
    endloop
  endfacet
  facet normal 0 0 -1
    outer loop
      vertex -3 0 0
      vertex 53 30 0
      vertex 53 0 0
    endloop
  endfacet
  facet normal 0 0 -1
    outer loop
      vertex -3 0 0
      vertex 53 0 0
      vertex 52.9763 -0.376 0
    endloop
  endfacet
  facet normal 0 0 -1
    outer loop
      vertex -3 0 0
      vertex 52.9763 -0.376 0
      vertex 52.9057 -0.74607 0
    endloop
  endfacet
  facet normal 0 0 -1
    outer loop
      vertex -3 0 0
      vertex 52.9057 -0.74607 0
      vertex 52.7893 -1.10437 0
    endloop
  endfacet
  facet normal 0 0 -1
    outer loop
      vertex -3 0 0
      vertex 52.7893 -1.10437 0
      vertex 52.6289 -1.44526 0
    endloop
  endfacet
  facet normal 0 0 -1
    outer loop
      vertex -3 0 0
      vertex 52.6289 -1.44526 0
      vertex 52.4271 -1.76336 0
    endloop
  endfacet
  facet normal 0 0 -1
    outer loop
      vertex -3 0 0
      vertex 52.4271 -1.76336 0
      vertex 52.1869 -2.05364 0
    endloop
  endfacet
  facet normal 0 0 -1
    outer loop
      vertex -3 0 0
      vertex 52.1869 -2.05364 0
      vertex 51.9123 -2.31154 0
    endloop
  endfacet
  facet normal 0 0 -1
    outer loop
      vertex -3 0 0
      vertex 51.9123 -2.31154 0
      vertex 51.6075 -2.53298 0
    endloop
  endfacet
  facet normal 0 0 -1
    outer loop
      vertex -3 0 0
      vertex 51.6075 -2.53298 0
      vertex 51.2773 -2.71448 0
    endloop
  endfacet
  facet normal 0 0 -1
    outer loop
      vertex -3 0 0
      vertex 51.2773 -2.71448 0
      vertex 50.9271 -2.85317 0
    endloop
  endfacet
  facet normal 0 0 -1
    outer loop
      vertex -3 0 0
      vertex 50.9271 -2.85317 0
      vertex 50.5621 -2.94686 0
    endloop
  endfacet
  facet normal 0 0 -1
    outer loop
      vertex -3 0 0
      vertex 50.5621 -2.94686 0
      vertex 50.1884 -2.99408 0
    endloop
  endfacet
  facet normal 0 0 -1
    outer loop
      vertex -3 0 0
      vertex 50.1884 -2.99408 0
      vertex -0.188372 -2.99408 0
    endloop
  endfacet
  facet normal 0 0 -1
    outer loop
      vertex -3 0 0
      vertex -0.188372 -2.99408 0
      vertex -0.562144 -2.94686 0
    endloop
  endfacet
  facet normal 0 0 -1
    outer loop
      vertex -3 0 0
      vertex -0.562144 -2.94686 0
      vertex -0.927051 -2.85317 0
    endloop
  endfacet
  facet normal 0 0 -1
    outer loop
      vertex -3 0 0
      vertex -0.927051 -2.85317 0
      vertex -1.27734 -2.71448 0
    endloop
  endfacet
  facet normal 0 0 -1
    outer loop
      vertex -3 0 0
      vertex -1.27734 -2.71448 0
      vertex -1.60748 -2.53298 0
    endloop
  endfacet
  facet normal 0 0 -1
    outer loop
      vertex -3 0 0
      vertex -1.60748 -2.53298 0
      vertex -1.91227 -2.31154 0
    endloop
  endfacet
  facet normal 0 0 -1
    outer loop
      vertex -3 0 0
      vertex -1.91227 -2.31154 0
      vertex -2.18691 -2.05364 0
    endloop
  endfacet
  facet normal 0 0 -1
    outer loop
      vertex -3 0 0
      vertex -2.18691 -2.05364 0
      vertex -2.42705 -1.76336 0
    endloop
  endfacet
  facet normal 0 0 -1
    outer loop
      vertex -3 0 0
      vertex -2.42705 -1.76336 0
      vertex -2.62892 -1.44526 0
    endloop
  endfacet
  facet normal 0 0 -1
    outer loop
      vertex -3 0 0
      vertex -2.62892 -1.44526 0
      vertex -2.78933 -1.10437 0
    endloop
  endfacet
  facet normal 0 0 -1
    outer loop
      vertex -3 0 0
      vertex -2.78933 -1.10437 0
      vertex -2.90575 -0.74607 0
    endloop
  endfacet
  facet normal 0 0 -1
    outer loop
      vertex -3 0 0
      vertex -2.90575 -0.74607 0
      vertex -2.97634 -0.376 0
    endloop
  endfacet
  facet normal 0.125332 -0.992115 0
    outer loop
      vertex 50.1884 -2.99408 0
      vertex 50.5621 -2.94686 0
      vertex 50.5621 -2.94686 20
    endloop
  endfacet
  facet normal 0.125332 -0.992115 0
    outer loop
      vertex 50.1884 -2.99408 20
      vertex 50.1884 -2.99408 0
      vertex 50.5621 -2.94686 20
    endloop
  endfacet
  facet normal -0.248689 -0.968583 0
    outer loop
      vertex -0.927051 -2.85317 0
      vertex -0.562144 -2.94686 0
      vertex -0.562144 -2.94686 20
    endloop
  endfacet
  facet normal -0.248689 -0.968583 0
    outer loop
      vertex -0.927051 -2.85317 20
      vertex -0.927051 -2.85317 0
      vertex -0.562144 -2.94686 20
    endloop
  endfacet
  facet normal -0.998027 -0.0627907 0
    outer loop
      vertex -2.97634 -0.376 0
      vertex -2.97634 -0.376 20
      vertex -3 0 0
    endloop
  endfacet
  facet normal -0.998027 -0.0627907 0
    outer loop
      vertex -3 0 0
      vertex -2.97634 -0.376 20
      vertex -3 0 20
    endloop
  endfacet
  facet normal -1 0 0
    outer loop
      vertex -3 0 20
      vertex -3 30 20
      vertex -3 0 0
    endloop
  endfacet
  facet normal -1 0 0
    outer loop
      vertex -3 0 0
      vertex -3 30 20
      vertex -3 30 0
    endloop
  endfacet
  facet normal -0.998027 0.0627907 0
    outer loop
      vertex -3 30 20
      vertex -2.97634 30.376 20
      vertex -3 30 0
    endloop
  endfacet
  facet normal -0.998027 0.0627907 0
    outer loop
      vertex -3 30 0
      vertex -2.97634 30.376 20
      vertex -2.97634 30.376 0
    endloop
  endfacet
  facet normal -0.982287 0.187382 0
    outer loop
      vertex -2.97634 30.376 20
      vertex -2.90575 30.7461 20
      vertex -2.97634 30.376 0
    endloop
  endfacet
  facet normal -0.982287 0.187382 0
    outer loop
      vertex -2.97634 30.376 0
      vertex -2.90575 30.7461 20
      vertex -2.90575 30.7461 0
    endloop
  endfacet
  facet normal -0.951057 0.309017 0
    outer loop
      vertex -2.90575 30.7461 20
      vertex -2.78933 31.1044 20
      vertex -2.90575 30.7461 0
    endloop
  endfacet
  facet normal -0.951057 0.309017 0
    outer loop
      vertex -2.90575 30.7461 0
      vertex -2.78933 31.1044 20
      vertex -2.78933 31.1044 0
    endloop
  endfacet
  facet normal -0.904827 0.425779 0
    outer loop
      vertex -2.78933 31.1044 20
      vertex -2.62892 31.4453 20
      vertex -2.78933 31.1044 0
    endloop
  endfacet
  facet normal -0.904827 0.425779 0
    outer loop
      vertex -2.78933 31.1044 0
      vertex -2.62892 31.4453 20
      vertex -2.62892 31.4453 0
    endloop
  endfacet
  facet normal -0.844328 0.535826 0
    outer loop
      vertex -2.62892 31.4453 20
      vertex -2.42705 31.7634 20
      vertex -2.62892 31.4453 0
    endloop
  endfacet
  facet normal -0.844328 0.535826 0
    outer loop
      vertex -2.62892 31.4453 0
      vertex -2.42705 31.7634 20
      vertex -2.42705 31.7634 0
    endloop
  endfacet
  facet normal -0.770513 0.637425 0
    outer loop
      vertex -2.42705 31.7634 20
      vertex -2.18691 32.0536 20
      vertex -2.42705 31.7634 0
    endloop
  endfacet
  facet normal -0.770513 0.637425 0
    outer loop
      vertex -2.42705 31.7634 0
      vertex -2.18691 32.0536 20
      vertex -2.18691 32.0536 0
    endloop
  endfacet
  facet normal -0.684548 0.728968 0
    outer loop
      vertex -2.18691 32.0536 20
      vertex -1.91227 32.3115 20
      vertex -2.18691 32.0536 0
    endloop
  endfacet
  facet normal -0.684548 0.728968 0
    outer loop
      vertex -2.18691 32.0536 0
      vertex -1.91227 32.3115 20
      vertex -1.91227 32.3115 0
    endloop
  endfacet
  facet normal -0.587785 0.809017 0
    outer loop
      vertex -1.91227 32.3115 20
      vertex -1.60748 32.533 20
      vertex -1.91227 32.3115 0
    endloop
  endfacet
  facet normal -0.587785 0.809017 0
    outer loop
      vertex -1.91227 32.3115 0
      vertex -1.60748 32.533 20
      vertex -1.60748 32.533 0
    endloop
  endfacet
  facet normal -0.481753 0.876307 0
    outer loop
      vertex -1.60748 32.533 20
      vertex -1.27734 32.7145 20
      vertex -1.60748 32.533 0
    endloop
  endfacet
  facet normal -0.481753 0.876307 0
    outer loop
      vertex -1.60748 32.533 0
      vertex -1.27734 32.7145 20
      vertex -1.27734 32.7145 0
    endloop
  endfacet
  facet normal -0.368126 0.929776 0
    outer loop
      vertex -1.27734 32.7145 20
      vertex -0.927051 32.8532 20
      vertex -1.27734 32.7145 0
    endloop
  endfacet
  facet normal -0.368126 0.929776 0
    outer loop
      vertex -1.27734 32.7145 0
      vertex -0.927051 32.8532 20
      vertex -0.927051 32.8532 0
    endloop
  endfacet
  facet normal -0.248689 0.968583 0
    outer loop
      vertex -0.927051 32.8532 20
      vertex -0.562144 32.9469 20
      vertex -0.927051 32.8532 0
    endloop
  endfacet
  facet normal -0.248689 0.968583 0
    outer loop
      vertex -0.927051 32.8532 0
      vertex -0.562144 32.9469 20
      vertex -0.562144 32.9469 0
    endloop
  endfacet
  facet normal -0.125332 0.992115 0
    outer loop
      vertex -0.562144 32.9469 20
      vertex -0.188372 32.9941 20
      vertex -0.562144 32.9469 0
    endloop
  endfacet
  facet normal -0.125332 0.992115 0
    outer loop
      vertex -0.562144 32.9469 0
      vertex -0.188372 32.9941 20
      vertex -0.188372 32.9941 0
    endloop
  endfacet
  facet normal 0 1 0
    outer loop
      vertex -0.188372 32.9941 20
      vertex 50.1884 32.9941 20
      vertex -0.188372 32.9941 0
    endloop
  endfacet
  facet normal 0 1 0
    outer loop
      vertex -0.188372 32.9941 0
      vertex 50.1884 32.9941 20
      vertex 50.1884 32.9941 0
    endloop
  endfacet
  facet normal 0.125332 0.992115 0
    outer loop
      vertex 50.1884 32.9941 20
      vertex 50.5621 32.9469 20
      vertex 50.1884 32.9941 0
    endloop
  endfacet
  facet normal 0.125332 0.992115 0
    outer loop
      vertex 50.1884 32.9941 0
      vertex 50.5621 32.9469 20
      vertex 50.5621 32.9469 0
    endloop
  endfacet
  facet normal 0.248689 0.968583 0
    outer loop
      vertex 50.5621 32.9469 20
      vertex 50.9271 32.8532 20
      vertex 50.5621 32.9469 0
    endloop
  endfacet
  facet normal 0.248689 0.968583 0
    outer loop
      vertex 50.5621 32.9469 0
      vertex 50.9271 32.8532 20
      vertex 50.9271 32.8532 0
    endloop
  endfacet
  facet normal 0.368126 0.929776 0
    outer loop
      vertex 50.9271 32.8532 20
      vertex 51.2773 32.7145 20
      vertex 50.9271 32.8532 0
    endloop
  endfacet
  facet normal 0.368126 0.929776 0
    outer loop
      vertex 50.9271 32.8532 0
      vertex 51.2773 32.7145 20
      vertex 51.2773 32.7145 0
    endloop
  endfacet
  facet normal 0.481753 0.876307 0
    outer loop
      vertex 51.2773 32.7145 20
      vertex 51.6075 32.533 20
      vertex 51.2773 32.7145 0
    endloop
  endfacet
  facet normal 0.481753 0.876307 0
    outer loop
      vertex 51.2773 32.7145 0
      vertex 51.6075 32.533 20
      vertex 51.6075 32.533 0
    endloop
  endfacet
  facet normal 0.587785 0.809017 0
    outer loop
      vertex 51.6075 32.533 20
      vertex 51.9123 32.3115 20
      vertex 51.6075 32.533 0
    endloop
  endfacet
  facet normal 0.587785 0.809017 0
    outer loop
      vertex 51.6075 32.533 0
      vertex 51.9123 32.3115 20
      vertex 51.9123 32.3115 0
    endloop
  endfacet
  facet normal 0.684548 0.728968 0
    outer loop
      vertex 51.9123 32.3115 20
      vertex 52.1869 32.0536 20
      vertex 51.9123 32.3115 0
    endloop
  endfacet
  facet normal 0.684548 0.728968 0
    outer loop
      vertex 51.9123 32.3115 0
      vertex 52.1869 32.0536 20
      vertex 52.1869 32.0536 0
    endloop
  endfacet
  facet normal 0.770513 0.637425 0
    outer loop
      vertex 52.1869 32.0536 0
      vertex 52.1869 32.0536 20
      vertex 52.4271 31.7634 20
    endloop
  endfacet
  facet normal 0.770513 0.637425 0
    outer loop
      vertex 52.4271 31.7634 0
      vertex 52.1869 32.0536 0
      vertex 52.4271 31.7634 20
    endloop
  endfacet
  facet normal 0.844328 0.535826 0
    outer loop
      vertex 52.4271 31.7634 0
      vertex 52.4271 31.7634 20
      vertex 52.6289 31.4453 20
    endloop
  endfacet
  facet normal 0.844328 0.535826 0
    outer loop
      vertex 52.6289 31.4453 0
      vertex 52.4271 31.7634 0
      vertex 52.6289 31.4453 20
    endloop
  endfacet
  facet normal 0.904827 0.425779 0
    outer loop
      vertex 52.6289 31.4453 0
      vertex 52.6289 31.4453 20
      vertex 52.7893 31.1044 20
    endloop
  endfacet
  facet normal 0.904827 0.425779 0
    outer loop
      vertex 52.7893 31.1044 0
      vertex 52.6289 31.4453 0
      vertex 52.7893 31.1044 20
    endloop
  endfacet
  facet normal 0.951057 0.309017 0
    outer loop
      vertex 52.7893 31.1044 0
      vertex 52.7893 31.1044 20
      vertex 52.9057 30.7461 20
    endloop
  endfacet
  facet normal 0.951057 0.309017 0
    outer loop
      vertex 52.9057 30.7461 0
      vertex 52.7893 31.1044 0
      vertex 52.9057 30.7461 20
    endloop
  endfacet
  facet normal 0.982287 0.187382 0
    outer loop
      vertex 52.9057 30.7461 0
      vertex 52.9057 30.7461 20
      vertex 52.9763 30.376 20
    endloop
  endfacet
  facet normal 0.982287 0.187382 0
    outer loop
      vertex 52.9763 30.376 0
      vertex 52.9057 30.7461 0
      vertex 52.9763 30.376 20
    endloop
  endfacet
  facet normal 0.998027 0.0627907 0
    outer loop
      vertex 52.9763 30.376 0
      vertex 52.9763 30.376 20
      vertex 53 30 20
    endloop
  endfacet
  facet normal 0.998027 0.0627907 0
    outer loop
      vertex 53 30 0
      vertex 52.9763 30.376 0
      vertex 53 30 20
    endloop
  endfacet
  facet normal 1 0 0
    outer loop
      vertex 53 0 0
      vertex 53 30 0
      vertex 53 30 20
    endloop
  endfacet
  facet normal 1 0 0
    outer loop
      vertex 53 0 20
      vertex 53 0 0
      vertex 53 30 20
    endloop
  endfacet
  facet normal 0.998027 -0.0627907 0
    outer loop
      vertex 52.9763 -0.376 0
      vertex 53 0 0
      vertex 53 0 20
    endloop
  endfacet
  facet normal 0.998027 -0.0627907 0
    outer loop
      vertex 52.9763 -0.376 20
      vertex 52.9763 -0.376 0
      vertex 53 0 20
    endloop
  endfacet
  facet normal 0.982287 -0.187382 0
    outer loop
      vertex 52.9057 -0.74607 0
      vertex 52.9763 -0.376 0
      vertex 52.9763 -0.376 20
    endloop
  endfacet
  facet normal 0.982287 -0.187382 0
    outer loop
      vertex 52.9057 -0.74607 20
      vertex 52.9057 -0.74607 0
      vertex 52.9763 -0.376 20
    endloop
  endfacet
  facet normal 0.951057 -0.309017 0
    outer loop
      vertex 52.7893 -1.10437 0
      vertex 52.9057 -0.74607 0
      vertex 52.9057 -0.74607 20
    endloop
  endfacet
  facet normal 0.951057 -0.309017 0
    outer loop
      vertex 52.7893 -1.10437 20
      vertex 52.7893 -1.10437 0
      vertex 52.9057 -0.74607 20
    endloop
  endfacet
  facet normal 0.904827 -0.425779 0
    outer loop
      vertex 52.6289 -1.44526 0
      vertex 52.7893 -1.10437 0
      vertex 52.7893 -1.10437 20
    endloop
  endfacet
  facet normal 0.904827 -0.425779 0
    outer loop
      vertex 52.6289 -1.44526 20
      vertex 52.6289 -1.44526 0
      vertex 52.7893 -1.10437 20
    endloop
  endfacet
  facet normal 0.844328 -0.535826 0
    outer loop
      vertex 52.4271 -1.76336 0
      vertex 52.6289 -1.44526 0
      vertex 52.6289 -1.44526 20
    endloop
  endfacet
  facet normal 0.844328 -0.535826 0
    outer loop
      vertex 52.4271 -1.76336 20
      vertex 52.4271 -1.76336 0
      vertex 52.6289 -1.44526 20
    endloop
  endfacet
  facet normal 0.770513 -0.637425 0
    outer loop
      vertex 52.1869 -2.05364 0
      vertex 52.4271 -1.76336 0
      vertex 52.4271 -1.76336 20
    endloop
  endfacet
  facet normal 0.770513 -0.637425 0
    outer loop
      vertex 52.1869 -2.05364 20
      vertex 52.1869 -2.05364 0
      vertex 52.4271 -1.76336 20
    endloop
  endfacet
  facet normal 0.684548 -0.728968 0
    outer loop
      vertex 51.9123 -2.31154 0
      vertex 52.1869 -2.05364 0
      vertex 52.1869 -2.05364 20
    endloop
  endfacet
  facet normal 0.684548 -0.728968 0
    outer loop
      vertex 51.9123 -2.31154 20
      vertex 51.9123 -2.31154 0
      vertex 52.1869 -2.05364 20
    endloop
  endfacet
  facet normal 0.587785 -0.809017 0
    outer loop
      vertex 51.6075 -2.53298 0
      vertex 51.9123 -2.31154 0
      vertex 51.9123 -2.31154 20
    endloop
  endfacet
  facet normal 0.587785 -0.809017 0
    outer loop
      vertex 51.6075 -2.53298 20
      vertex 51.6075 -2.53298 0
      vertex 51.9123 -2.31154 20
    endloop
  endfacet
  facet normal 0.481753 -0.876307 0
    outer loop
      vertex 51.2773 -2.71448 0
      vertex 51.6075 -2.53298 0
      vertex 51.6075 -2.53298 20
    endloop
  endfacet
  facet normal 0.481753 -0.876307 0
    outer loop
      vertex 51.2773 -2.71448 20
      vertex 51.2773 -2.71448 0
      vertex 51.6075 -2.53298 20
    endloop
  endfacet
  facet normal 0.368126 -0.929776 0
    outer loop
      vertex 50.9271 -2.85317 0
      vertex 51.2773 -2.71448 0
      vertex 51.2773 -2.71448 20
    endloop
  endfacet
  facet normal 0.368126 -0.929776 0
    outer loop
      vertex 50.9271 -2.85317 20
      vertex 50.9271 -2.85317 0
      vertex 51.2773 -2.71448 20
    endloop
  endfacet
  facet normal 0.248689 -0.968583 0
    outer loop
      vertex 50.5621 -2.94686 0
      vertex 50.9271 -2.85317 0
      vertex 50.9271 -2.85317 20
    endloop
  endfacet
  facet normal 0.248689 -0.968583 0
    outer loop
      vertex 50.5621 -2.94686 20
      vertex 50.5621 -2.94686 0
      vertex 50.9271 -2.85317 20
    endloop
  endfacet
  facet normal -0.368126 -0.929776 0
    outer loop
      vertex -1.27734 -2.71448 0
      vertex -0.927051 -2.85317 0
      vertex -0.927051 -2.85317 20
    endloop
  endfacet
  facet normal -0.368126 -0.929776 0
    outer loop
      vertex -1.27734 -2.71448 20
      vertex -1.27734 -2.71448 0
      vertex -0.927051 -2.85317 20
    endloop
  endfacet
  facet normal -0.481753 -0.876307 0
    outer loop
      vertex -1.60748 -2.53298 0
      vertex -1.27734 -2.71448 0
      vertex -1.27734 -2.71448 20
    endloop
  endfacet
  facet normal -0.481753 -0.876307 0
    outer loop
      vertex -1.60748 -2.53298 20
      vertex -1.60748 -2.53298 0
      vertex -1.27734 -2.71448 20
    endloop
  endfacet
  facet normal -0.587785 -0.809017 0
    outer loop
      vertex -1.91227 -2.31154 0
      vertex -1.60748 -2.53298 0
      vertex -1.60748 -2.53298 20
    endloop
  endfacet
  facet normal -0.587785 -0.809017 0
    outer loop
      vertex -1.91227 -2.31154 20
      vertex -1.91227 -2.31154 0
      vertex -1.60748 -2.53298 20
    endloop
  endfacet
  facet normal -0.684548 -0.728968 0
    outer loop
      vertex -2.18691 -2.05364 0
      vertex -1.91227 -2.31154 0
      vertex -1.91227 -2.31154 20
    endloop
  endfacet
  facet normal -0.684548 -0.728968 0
    outer loop
      vertex -2.18691 -2.05364 20
      vertex -2.18691 -2.05364 0
      vertex -1.91227 -2.31154 20
    endloop
  endfacet
  facet normal -0.770513 -0.637425 0
    outer loop
      vertex -2.18691 -2.05364 0
      vertex -2.18691 -2.05364 20
      vertex -2.42705 -1.76336 0
    endloop
  endfacet
  facet normal -0.770513 -0.637425 0
    outer loop
      vertex -2.42705 -1.76336 0
      vertex -2.18691 -2.05364 20
      vertex -2.42705 -1.76336 20
    endloop
  endfacet
  facet normal -0.844328 -0.535826 0
    outer loop
      vertex -2.42705 -1.76336 0
      vertex -2.42705 -1.76336 20
      vertex -2.62892 -1.44526 0
    endloop
  endfacet
  facet normal -0.844328 -0.535826 0
    outer loop
      vertex -2.62892 -1.44526 0
      vertex -2.42705 -1.76336 20
      vertex -2.62892 -1.44526 20
    endloop
  endfacet
  facet normal -0.904827 -0.425779 0
    outer loop
      vertex -2.62892 -1.44526 0
      vertex -2.62892 -1.44526 20
      vertex -2.78933 -1.10437 0
    endloop
  endfacet
  facet normal -0.904827 -0.425779 0
    outer loop
      vertex -2.78933 -1.10437 0
      vertex -2.62892 -1.44526 20
      vertex -2.78933 -1.10437 20
    endloop
  endfacet
  facet normal -0.951057 -0.309017 0
    outer loop
      vertex -2.78933 -1.10437 0
      vertex -2.78933 -1.10437 20
      vertex -2.90575 -0.74607 0
    endloop
  endfacet
  facet normal -0.951057 -0.309017 0
    outer loop
      vertex -2.90575 -0.74607 0
      vertex -2.78933 -1.10437 20
      vertex -2.90575 -0.74607 20
    endloop
  endfacet
  facet normal -0.982287 -0.187382 0
    outer loop
      vertex -2.90575 -0.74607 0
      vertex -2.90575 -0.74607 20
      vertex -2.97634 -0.376 0
    endloop
  endfacet
  facet normal -0.982287 -0.187382 0
    outer loop
      vertex -2.97634 -0.376 0
      vertex -2.90575 -0.74607 20
      vertex -2.97634 -0.376 20
    endloop
  endfacet
endsolid OpenSCAD_Model
